<svg data-v-423bf9ae="" xmlns="http://www.w3.org/2000/svg" viewBox="0 0 439.69983413581537 193" class="iconAboveSlogan"><!----><!----><defs data-v-423bf9ae=""><linearGradient data-v-423bf9ae="" gradientTransform="rotate(25)" id="38f845f8-5ab6-4d66-be4c-69c1bee41dcc" x1="0%" y1="0%" x2="100%" y2="0%"><stop data-v-423bf9ae="" offset="0%" style="stop-color: rgb(12, 141, 140); stop-opacity: 1;"></stop><stop data-v-423bf9ae="" offset="100%" style="stop-color: rgb(89, 223, 222); stop-opacity: 1;"></stop></linearGradient></defs><g data-v-423bf9ae="" id="8dac8fd1-7e22-4422-871b-fa0033d2e9f6" fill="url(#38f845f8-5ab6-4d66-be4c-69c1bee41dcc)" transform="matrix(5.628518104553223,0,0,5.628518104553223,-4.72796630859375,70.97372436523438)"><path d="M8.72 16.19L8.72 15.11L8.72 15.11Q8.70 15.19 8.41 15.52L8.41 15.52L8.41 15.52Q8.20 15.76 7.86 15.95L7.86 15.95L7.86 15.95Q7.52 16.14 6.95 16.25L6.95 16.25L6.95 16.25Q6.38 16.35 5.45 16.35L5.45 16.35L5.45 16.35Q4.21 16.35 3.34 16.23L3.34 16.23L3.34 16.23Q2.46 16.10 1.91 15.84L1.91 15.84L1.91 15.84Q1.35 15.57 1.10 15.16L1.10 15.16L1.10 15.16Q0.84 14.75 0.84 14.18L0.84 14.18L0.84 14.18Q0.84 13.59 0.98 13.18L0.98 13.18L0.98 13.18Q1.12 12.76 1.39 12.48L1.39 12.48L1.39 12.48Q1.66 12.20 2.04 12.04L2.04 12.04L2.04 12.04Q2.43 11.89 2.92 11.81L2.92 11.81L2.92 11.81Q3.40 11.72 3.99 11.70L3.99 11.70L3.99 11.70Q4.57 11.68 5.22 11.68L5.22 11.68L5.22 11.68Q6.16 11.68 6.79 11.76L6.79 11.76L6.79 11.76Q7.42 11.84 7.82 11.96L7.82 11.96L7.82 11.96Q8.22 12.08 8.42 12.22L8.42 12.22L8.42 12.22Q8.63 12.35 8.72 12.47L8.72 12.47L8.72 12.47Q8.72 11.70 8.65 11.16L8.65 11.16L8.65 11.16Q8.59 10.62 8.44 10.26L8.44 10.26L8.44 10.26Q8.29 9.90 8.06 9.68L8.06 9.68L8.06 9.68Q7.83 9.47 7.49 9.36L7.49 9.36L7.49 9.36Q7.15 9.25 6.70 9.22L6.70 9.22L6.70 9.22Q6.25 9.19 5.67 9.19L5.67 9.19L5.67 9.19Q4.76 9.19 4.17 9.23L4.17 9.23L4.17 9.23Q3.58 9.28 3.23 9.41L3.23 9.41L3.23 9.41Q2.88 9.54 2.73 9.77L2.73 9.77L2.73 9.77Q2.59 9.99 2.59 10.36L2.59 10.36L1.28 10.36L1.28 10.36Q1.28 9.74 1.50 9.31L1.50 9.31L1.50 9.31Q1.72 8.88 2.24 8.61L2.24 8.61L2.24 8.61Q2.75 8.34 3.60 8.22L3.60 8.22L3.60 8.22Q4.44 8.09 5.67 8.09L5.67 8.09L5.67 8.09Q6.87 8.09 7.70 8.29L7.70 8.29L7.70 8.29Q8.54 8.49 9.05 8.99L9.05 8.99L9.05 8.99Q9.57 9.49 9.80 10.33L9.80 10.33L9.80 10.33Q10.03 11.18 10.03 12.47L10.03 12.47L10.03 16.19L8.72 16.19ZM5.67 15.31L5.67 15.31L5.67 15.31Q6.54 15.31 7.12 15.23L7.12 15.23L7.12 15.23Q7.70 15.15 8.06 14.98L8.06 14.98L8.06 14.98Q8.42 14.82 8.57 14.57L8.57 14.57L8.57 14.57Q8.72 14.33 8.72 14L8.72 14L8.72 14Q8.72 13.67 8.54 13.44L8.54 13.44L8.54 13.44Q8.37 13.21 7.96 13.07L7.96 13.07L7.96 13.07Q7.55 12.93 6.88 12.86L6.88 12.86L6.88 12.86Q6.21 12.80 5.23 12.80L5.23 12.80L5.23 12.80Q4.25 12.80 3.64 12.83L3.64 12.83L3.64 12.83Q3.04 12.87 2.71 12.99L2.71 12.99L2.71 12.99Q2.38 13.11 2.27 13.35L2.27 13.35L2.27 13.35Q2.15 13.59 2.15 14L2.15 14L2.15 14Q2.15 14.41 2.27 14.67L2.27 14.67L2.27 14.67Q2.39 14.92 2.76 15.07L2.76 15.07L2.76 15.07Q3.13 15.21 3.82 15.26L3.82 15.26L3.82 15.26Q4.52 15.31 5.67 15.31ZM11.56 12.26L11.56 12.26L11.56 12.26Q11.56 11.44 11.64 10.81L11.64 10.81L11.64 10.81Q11.72 10.19 11.93 9.72L11.93 9.72L11.93 9.72Q12.14 9.26 12.49 8.94L12.49 8.94L12.49 8.94Q12.84 8.63 13.38 8.44L13.38 8.44L13.38 8.44Q13.92 8.25 14.66 8.17L14.66 8.17L14.66 8.17Q15.39 8.09 16.38 8.09L16.38 8.09L16.38 8.09Q17.69 8.09 18.54 8.25L18.54 8.25L18.54 8.25Q19.39 8.41 19.88 8.74L19.88 8.74L19.88 8.74Q20.37 9.07 20.56 9.58L20.56 9.58L20.56 9.58Q20.75 10.09 20.75 10.79L20.75 10.79L19.44 10.79L19.44 10.79Q19.44 10.54 19.43 10.32L19.43 10.32L19.43 10.32Q19.41 10.10 19.33 9.93L19.33 9.93L19.33 9.93Q19.24 9.75 19.06 9.61L19.06 9.61L19.06 9.61Q18.87 9.47 18.53 9.37L18.53 9.37L18.53 9.37Q18.19 9.28 17.67 9.23L17.67 9.23L17.67 9.23Q17.14 9.18 16.38 9.18L16.38 9.18L16.38 9.18Q15.50 9.18 14.91 9.24L14.91 9.24L14.91 9.24Q14.31 9.30 13.92 9.44L13.92 9.44L13.92 9.44Q13.53 9.58 13.32 9.82L13.32 9.82L13.32 9.82Q13.10 10.06 13.01 10.40L13.01 10.40L13.01 10.40Q12.91 10.74 12.90 11.20L12.90 11.20L12.90 11.20Q12.88 11.66 12.88 12.26L12.88 12.26L12.88 12.26Q12.88 12.85 12.90 13.31L12.90 13.31L12.90 13.31Q12.91 13.76 13.01 14.10L13.01 14.10L13.01 14.10Q13.10 14.44 13.32 14.67L13.32 14.67L13.32 14.67Q13.53 14.90 13.92 15.05L13.92 15.05L13.92 15.05Q14.31 15.19 14.91 15.25L14.91 15.25L14.91 15.25Q15.50 15.31 16.38 15.31L16.38 15.31L16.38 15.31Q17.14 15.31 17.67 15.26L17.67 15.26L17.67 15.26Q18.19 15.20 18.53 15.10L18.53 15.10L18.53 15.10Q18.87 15.00 19.06 14.85L19.06 14.85L19.06 14.85Q19.24 14.70 19.33 14.50L19.33 14.50L19.33 14.50Q19.41 14.31 19.43 14.07L19.43 14.07L19.43 14.07Q19.44 13.84 19.44 13.56L19.44 13.56L20.75 13.56L20.75 13.56Q20.75 14.28 20.56 14.81L20.56 14.81L20.56 14.81Q20.37 15.33 19.88 15.67L19.88 15.67L19.88 15.67Q19.39 16.01 18.54 16.17L18.54 16.17L18.54 16.17Q17.69 16.34 16.38 16.34L16.38 16.34L16.38 16.34Q15.39 16.34 14.66 16.26L14.66 16.26L14.66 16.26Q13.92 16.17 13.38 15.99L13.38 15.99L13.38 15.99Q12.84 15.80 12.49 15.49L12.49 15.49L12.49 15.49Q12.14 15.18 11.93 14.73L11.93 14.73L11.93 14.73Q11.72 14.28 11.64 13.67L11.64 13.67L11.64 13.67Q11.56 13.06 11.56 12.26ZM22.29 12.26L22.29 12.26L22.29 12.26Q22.29 11.44 22.37 10.81L22.37 10.81L22.37 10.81Q22.45 10.19 22.66 9.72L22.66 9.72L22.66 9.72Q22.87 9.26 23.22 8.94L23.22 8.94L23.22 8.94Q23.57 8.63 24.11 8.44L24.11 8.44L24.11 8.44Q24.64 8.25 25.38 8.17L25.38 8.17L25.38 8.17Q26.12 8.09 27.10 8.09L27.10 8.09L27.10 8.09Q28.42 8.09 29.26 8.25L29.26 8.25L29.26 8.25Q30.11 8.41 30.60 8.74L30.60 8.74L30.60 8.74Q31.10 9.07 31.29 9.58L31.29 9.58L31.29 9.58Q31.48 10.09 31.48 10.79L31.48 10.79L30.17 10.79L30.17 10.79Q30.17 10.54 30.15 10.32L30.15 10.32L30.15 10.32Q30.14 10.10 30.05 9.93L30.05 9.93L30.05 9.93Q29.97 9.75 29.78 9.61L29.78 9.61L29.78 9.61Q29.60 9.47 29.26 9.37L29.26 9.37L29.26 9.37Q28.92 9.28 28.39 9.23L28.39 9.23L28.39 9.23Q27.87 9.18 27.10 9.18L27.10 9.18L27.10 9.18Q26.23 9.18 25.63 9.24L25.63 9.24L25.63 9.24Q25.03 9.30 24.64 9.44L24.64 9.44L24.64 9.44Q24.25 9.58 24.04 9.82L24.04 9.82L24.04 9.82Q23.83 10.06 23.73 10.40L23.73 10.40L23.73 10.40Q23.64 10.74 23.62 11.20L23.62 11.20L23.62 11.20Q23.60 11.66 23.60 12.26L23.60 12.26L23.60 12.26Q23.60 12.85 23.62 13.31L23.62 13.31L23.62 13.31Q23.64 13.76 23.73 14.10L23.73 14.10L23.73 14.10Q23.83 14.44 24.04 14.67L24.04 14.67L24.04 14.67Q24.25 14.90 24.64 15.05L24.64 15.05L24.64 15.05Q25.03 15.19 25.63 15.25L25.63 15.25L25.63 15.25Q26.23 15.31 27.10 15.31L27.10 15.31L27.10 15.31Q27.87 15.31 28.39 15.26L28.39 15.26L28.39 15.26Q28.92 15.20 29.26 15.10L29.26 15.10L29.26 15.10Q29.60 15.00 29.78 14.85L29.78 14.85L29.78 14.85Q29.97 14.70 30.05 14.50L30.05 14.50L30.05 14.50Q30.14 14.31 30.15 14.07L30.15 14.07L30.15 14.07Q30.17 13.84 30.17 13.56L30.17 13.56L31.48 13.56L31.48 13.56Q31.48 14.28 31.29 14.81L31.29 14.81L31.29 14.81Q31.10 15.33 30.60 15.67L30.60 15.67L30.60 15.67Q30.11 16.01 29.26 16.17L29.26 16.17L29.26 16.17Q28.42 16.34 27.10 16.34L27.10 16.34L27.10 16.34Q26.12 16.34 25.38 16.26L25.38 16.26L25.38 16.26Q24.64 16.17 24.11 15.99L24.11 15.99L24.11 15.99Q23.57 15.80 23.22 15.49L23.22 15.49L23.22 15.49Q22.87 15.18 22.66 14.73L22.66 14.73L22.66 14.73Q22.45 14.28 22.37 13.67L22.37 13.67L22.37 13.67Q22.29 13.06 22.29 12.26ZM33.24 8.31L34.55 8.31L34.55 12.69L34.55 12.69Q34.55 13.42 34.66 13.92L34.66 13.92L34.66 13.92Q34.77 14.42 35.10 14.73L35.10 14.73L35.10 14.73Q35.42 15.04 36.03 15.18L36.03 15.18L36.03 15.18Q36.63 15.31 37.61 15.31L37.61 15.31L37.61 15.31Q38.68 15.31 39.36 15.16L39.36 15.16L39.36 15.16Q40.04 15.00 40.43 14.71L40.43 14.71L40.43 14.71Q40.82 14.42 40.96 14.02L40.96 14.02L40.96 14.02Q41.11 13.62 41.11 13.13L41.11 13.13L41.11 8.31L42.42 8.31L42.42 16.19L41.11 16.19L41.11 14.88L41.11 14.88Q41.02 15.09 40.79 15.34L40.79 15.34L40.79 15.34Q40.56 15.60 40.11 15.82L40.11 15.82L40.11 15.82Q39.66 16.04 38.95 16.19L38.95 16.19L38.95 16.19Q38.23 16.34 37.17 16.34L37.17 16.34L37.17 16.34Q36.29 16.34 35.66 16.23L35.66 16.23L35.66 16.23Q35.03 16.13 34.59 15.92L34.59 15.92L34.59 15.92Q34.15 15.71 33.88 15.40L33.88 15.40L33.88 15.40Q33.61 15.09 33.47 14.69L33.47 14.69L33.47 14.69Q33.33 14.28 33.28 13.78L33.28 13.78L33.28 13.78Q33.23 13.28 33.23 12.69L33.23 12.69L33.24 8.31ZM44.61 16.19L44.61 5.69L45.92 5.69L45.92 16.19L44.61 16.19ZM52.71 16.34L52.71 16.34L52.71 16.34Q51.39 16.34 50.48 16.16L50.48 16.16L50.48 16.16Q49.56 15.98 48.99 15.53L48.99 15.53L48.99 15.53Q48.41 15.09 48.15 14.34L48.15 14.34L48.15 14.34Q47.89 13.60 47.89 12.47L47.89 12.47L47.89 12.47Q47.89 11.18 48.15 10.33L48.15 10.33L48.15 10.33Q48.41 9.49 48.99 8.99L48.99 8.99L48.99 8.99Q49.56 8.49 50.48 8.29L50.48 8.29L50.48 8.29Q51.39 8.09 52.71 8.09L52.71 8.09L52.71 8.09Q53.64 8.09 54.33 8.23L54.33 8.23L54.33 8.23Q55.02 8.37 55.50 8.63L55.50 8.63L55.50 8.63Q55.99 8.89 56.30 9.26L56.30 9.26L56.30 9.26Q56.60 9.63 56.78 10.03L56.78 10.03L56.78 10.03Q56.95 10.44 57.02 10.99L57.02 10.99L57.02 10.99Q57.08 11.53 57.08 12.14L57.08 12.14L56.97 12.58L49.21 12.58L49.21 12.58Q49.21 13.48 49.38 14.06L49.38 14.06L49.38 14.06Q49.56 14.64 49.97 14.90L49.97 14.90L49.97 14.90Q50.38 15.17 51.05 15.24L51.05 15.24L51.05 15.24Q51.72 15.31 52.71 15.31L52.71 15.31L52.71 15.31Q53.61 15.31 54.20 15.26L54.20 15.26L54.20 15.26Q54.79 15.21 55.14 15.07L55.14 15.07L55.14 15.07Q55.49 14.92 55.63 14.67L55.63 14.67L55.63 14.67Q55.77 14.41 55.77 14L55.77 14L57.08 14L57.08 14Q57.08 14.64 56.86 15.08L56.86 15.08L56.86 15.08Q56.64 15.53 56.12 15.81L56.12 15.81L56.12 15.81Q55.61 16.08 54.77 16.21L54.77 16.21L54.77 16.21Q53.94 16.34 52.71 16.34ZM52.71 9.19L52.71 9.19L52.71 9.19Q52.05 9.19 51.53 9.21L51.53 9.21L51.53 9.21Q51.02 9.24 50.63 9.33L50.63 9.33L50.63 9.33Q50.24 9.43 49.97 9.60L49.97 9.60L49.97 9.60Q49.70 9.78 49.53 10.01L49.53 10.01L49.53 10.01Q49.36 10.25 49.28 10.67L49.28 10.67L49.28 10.67Q49.21 11.10 49.21 11.70L49.21 11.70L55.77 11.70L55.77 11.70Q55.77 10.90 55.60 10.45L55.60 10.45L55.60 10.45Q55.43 9.99 55.06 9.70L55.06 9.70L55.06 9.70Q54.69 9.41 54.11 9.30L54.11 9.30L54.11 9.30Q53.53 9.19 52.71 9.19ZM63.42 12.60L63.42 12.60L63.42 12.60Q64.19 12.60 64.73 12.62L64.73 12.62L64.73 12.62Q65.27 12.65 65.64 12.70L65.64 12.70L65.64 12.70Q66.00 12.76 66.21 12.85L66.21 12.85L66.21 12.85Q66.42 12.94 66.53 13.11L66.53 13.11L66.53 13.11Q66.64 13.29 66.67 13.46L66.67 13.46L66.67 13.46Q66.71 13.64 66.71 13.86L66.71 13.86L66.71 13.86Q66.71 14.11 66.67 14.31L66.67 14.31L66.67 14.31Q66.64 14.51 66.53 14.68L66.53 14.68L66.53 14.68Q66.41 14.84 66.19 14.96L66.19 14.96L66.19 14.96Q65.96 15.07 65.57 15.16L65.57 15.16L65.57 15.16Q65.18 15.24 64.60 15.27L64.60 15.27L64.60 15.27Q64.03 15.31 63.21 15.31L63.21 15.31L63.21 15.31Q62.30 15.31 61.71 15.26L61.71 15.26L61.71 15.26Q61.12 15.21 60.77 15.07L60.77 15.07L60.77 15.07Q60.42 14.92 60.28 14.67L60.28 14.67L60.28 14.67Q60.14 14.41 60.14 14L60.14 14L58.83 14L58.83 14Q58.83 14.62 59.05 15.05L59.05 15.05L59.05 15.05Q59.27 15.48 59.79 15.75L59.79 15.75L59.79 15.75Q60.30 16.02 61.14 16.15L61.14 16.15L61.14 16.15Q61.97 16.27 63.21 16.27L63.21 16.27L63.21 16.27Q64.19 16.27 64.93 16.21L64.93 16.21L64.93 16.21Q65.67 16.15 66.21 16.03L66.21 16.03L66.21 16.03Q66.74 15.91 67.09 15.72L67.09 15.72L67.09 15.72Q67.44 15.52 67.65 15.25L67.65 15.25L67.65 15.25Q67.85 14.98 67.94 14.63L67.94 14.63L67.94 14.63Q68.02 14.28 68.02 13.84L68.02 13.84L68.02 13.84Q68.02 13.39 67.94 13.05L67.94 13.05L67.94 13.05Q67.85 12.71 67.65 12.47L67.65 12.47L67.65 12.47Q67.45 12.22 67.12 12.00L67.12 12.00L67.12 12.00Q66.78 11.79 66.27 11.69L66.27 11.69L66.27 11.69Q65.75 11.59 65.05 11.55L65.05 11.55L65.05 11.55Q64.35 11.50 63.42 11.50L63.42 11.50L63.42 11.50Q62.66 11.50 62.12 11.50L62.12 11.50L62.12 11.50Q61.58 11.50 61.21 11.46L61.21 11.46L61.21 11.46Q60.85 11.42 60.63 11.35L60.63 11.35L60.63 11.35Q60.42 11.27 60.31 11.13L60.31 11.13L60.31 11.13Q60.20 10.99 60.17 10.76L60.17 10.76L60.17 10.76Q60.14 10.54 60.14 10.31L60.14 10.31L60.14 10.31Q60.14 9.91 60.32 9.69L60.32 9.69L60.32 9.69Q60.50 9.46 60.91 9.35L60.91 9.35L60.91 9.35Q61.32 9.24 61.99 9.21L61.99 9.21L61.99 9.21Q62.66 9.19 63.64 9.19L63.64 9.19L63.64 9.19Q64.54 9.19 65.14 9.24L65.14 9.24L65.14 9.24Q65.73 9.29 66.08 9.42L66.08 9.42L66.08 9.42Q66.42 9.56 66.56 9.79L66.56 9.79L66.56 9.79Q66.71 10.02 66.71 10.39L66.71 10.39L68.02 10.39L68.02 10.39Q68.02 9.80 67.82 9.37L67.82 9.37L67.82 9.37Q67.62 8.93 67.13 8.65L67.13 8.65L67.13 8.65Q66.63 8.37 65.79 8.23L65.79 8.23L65.79 8.23Q64.94 8.09 63.64 8.09L63.64 8.09L63.64 8.09Q62.33 8.09 61.41 8.21L61.41 8.21L61.41 8.21Q60.50 8.33 59.92 8.59L59.92 8.59L59.92 8.59Q59.35 8.85 59.09 9.27L59.09 9.27L59.09 9.27Q58.83 9.69 58.83 10.31L58.83 10.31L58.83 10.31Q58.83 10.76 58.91 11.15L58.91 11.15L58.91 11.15Q58.99 11.53 59.19 11.80L59.19 11.80L59.19 11.80Q59.39 12.06 59.73 12.22L59.73 12.22L59.73 12.22Q60.07 12.37 60.58 12.46L60.58 12.46L60.58 12.46Q61.09 12.54 61.79 12.57L61.79 12.57L61.79 12.57Q62.49 12.60 63.42 12.60ZM74.36 12.60L74.36 12.60L74.36 12.60Q75.13 12.60 75.67 12.62L75.67 12.62L75.67 12.62Q76.21 12.65 76.57 12.70L76.57 12.70L76.57 12.70Q76.94 12.76 77.15 12.85L77.15 12.85L77.15 12.85Q77.36 12.94 77.47 13.11L77.47 13.11L77.47 13.11Q77.58 13.29 77.61 13.46L77.61 13.46L77.61 13.46Q77.64 13.64 77.64 13.86L77.64 13.86L77.64 13.86Q77.64 14.11 77.61 14.31L77.61 14.31L77.61 14.31Q77.58 14.51 77.46 14.68L77.46 14.68L77.46 14.68Q77.35 14.84 77.12 14.96L77.12 14.96L77.12 14.96Q76.90 15.07 76.51 15.16L76.51 15.16L76.51 15.16Q76.12 15.24 75.54 15.27L75.54 15.27L75.54 15.27Q74.96 15.31 74.14 15.31L74.14 15.31L74.14 15.31Q73.24 15.31 72.65 15.26L72.65 15.26L72.65 15.26Q72.06 15.21 71.71 15.07L71.71 15.07L71.71 15.07Q71.36 14.92 71.22 14.67L71.22 14.67L71.22 14.67Q71.08 14.41 71.08 14L71.08 14L69.77 14L69.77 14Q69.77 14.62 69.99 15.05L69.99 15.05L69.99 15.05Q70.21 15.48 70.72 15.75L70.72 15.75L70.72 15.75Q71.24 16.02 72.07 16.15L72.07 16.15L72.07 16.15Q72.91 16.27 74.14 16.27L74.14 16.27L74.14 16.27Q75.13 16.27 75.87 16.21L75.87 16.21L75.87 16.21Q76.61 16.15 77.14 16.03L77.14 16.03L77.14 16.03Q77.68 15.91 78.03 15.72L78.03 15.72L78.03 15.72Q78.38 15.52 78.59 15.25L78.59 15.25L78.59 15.25Q78.79 14.98 78.87 14.63L78.87 14.63L78.87 14.63Q78.96 14.28 78.96 13.84L78.96 13.84L78.96 13.84Q78.96 13.39 78.87 13.05L78.87 13.05L78.87 13.05Q78.79 12.71 78.59 12.47L78.59 12.47L78.59 12.47Q78.39 12.22 78.05 12.00L78.05 12.00L78.05 12.00Q77.72 11.79 77.21 11.69L77.21 11.69L77.21 11.69Q76.69 11.59 75.99 11.55L75.99 11.55L75.99 11.55Q75.29 11.50 74.36 11.50L74.36 11.50L74.36 11.50Q73.60 11.50 73.06 11.50L73.06 11.50L73.06 11.50Q72.52 11.50 72.15 11.46L72.15 11.46L72.15 11.46Q71.78 11.42 71.57 11.35L71.57 11.35L71.57 11.35Q71.36 11.27 71.25 11.13L71.25 11.13L71.25 11.13Q71.14 10.99 71.11 10.76L71.11 10.76L71.11 10.76Q71.08 10.54 71.08 10.31L71.08 10.31L71.08 10.31Q71.08 9.91 71.26 9.69L71.26 9.69L71.26 9.69Q71.44 9.46 71.85 9.35L71.85 9.35L71.85 9.35Q72.26 9.24 72.93 9.21L72.93 9.21L72.93 9.21Q73.60 9.19 74.58 9.19L74.58 9.19L74.58 9.19Q75.48 9.19 76.07 9.24L76.07 9.24L76.07 9.24Q76.67 9.29 77.01 9.42L77.01 9.42L77.01 9.42Q77.36 9.56 77.50 9.79L77.50 9.79L77.50 9.79Q77.64 10.02 77.64 10.39L77.64 10.39L78.96 10.39L78.96 10.39Q78.96 9.80 78.76 9.37L78.76 9.37L78.76 9.37Q78.56 8.93 78.06 8.65L78.06 8.65L78.06 8.65Q77.57 8.37 76.72 8.23L76.72 8.23L76.72 8.23Q75.88 8.09 74.58 8.09L74.58 8.09L74.58 8.09Q73.27 8.09 72.35 8.21L72.35 8.21L72.35 8.21Q71.44 8.33 70.86 8.59L70.86 8.59L70.86 8.59Q70.29 8.85 70.03 9.27L70.03 9.27L70.03 9.27Q69.77 9.69 69.77 10.31L69.77 10.31L69.77 10.31Q69.77 10.76 69.85 11.15L69.85 11.15L69.85 11.15Q69.93 11.53 70.13 11.80L70.13 11.80L70.13 11.80Q70.33 12.06 70.67 12.22L70.67 12.22L70.67 12.22Q71.00 12.37 71.51 12.46L71.51 12.46L71.51 12.46Q72.02 12.54 72.73 12.57L72.73 12.57L72.73 12.57Q73.43 12.60 74.36 12.60Z"></path></g><defs data-v-423bf9ae=""><linearGradient data-v-423bf9ae="" gradientTransform="rotate(25)" id="14853d3f-9c45-4867-b4aa-c32454feb9f7" x1="0%" y1="0%" x2="100%" y2="0%"><stop data-v-423bf9ae="" offset="0%" style="stop-color: rgb(12, 141, 140); stop-opacity: 1;"></stop><stop data-v-423bf9ae="" offset="100%" style="stop-color: rgb(89, 223, 222); stop-opacity: 1;"></stop></linearGradient></defs><g data-v-423bf9ae="" id="a25a8fde-532d-439b-82dc-04f79dca5dfd" transform="matrix(1.415094256401062,0,0,1.415094256401062,173.47264099121094,-1.4981135129928589)" stroke="none" fill="url(#14853d3f-9c45-4867-b4aa-c32454feb9f7)"><path d="M63.1 63.2h-5.2c-.4-3.7-3.5-6.6-7.3-6.6H15.4c-3.8 0-6.9 2.9-7.3 6.6H2.9c-.4 0-.8.3-.8.8 0 .4.3.8.8.8H63c.4 0 .8-.3.8-.8 0-.4-.3-.8-.7-.8zM2.9 15.6h5.2c.4 3.7 3.5 6.6 7.3 6.6h35.1c3.8 0 6.9-2.9 7.3-6.6H63c.4 0 .8-.3.8-.8 0-.4-.3-.8-.8-.8H33.7v-2.4c0-.4-.3-.8-.8-.8s-.8.3-.8.8V14H2.9c-.4 0-.8.3-.8.8.1.5.4.8.8.8zM34.3 37.6l-1-10.9c0-.4-.3-.6-.7-.7-.4 0-.7.2-.8.5L28 40.3c-.1.2 0 .5.1.6.1.2.4.3.6.3h2.9l1 10.9c0 .4.3.6.7.7h.1c.3 0 .6-.2.7-.5L38 38.6c.1-.2 0-.5-.1-.7-.1-.2-.4-.3-.6-.3h-3zM13.1 26.6c0-.4-.3-.8-.8-.8s-.8.3-.8.8V41c0 .4.3.8.8.8s.8-.3.8-.8V26.6zM12.3 47.3c-.4 0-.8.3-.8.8v4.2c0 .4.3.8.8.8s.8-.3.8-.8v-4.2c0-.4-.3-.8-.8-.8zM17.1 37.1c-.4 0-.8.3-.8.8v14.4c0 .4.3.8.8.8s.8-.3.8-.8V37.8c-.1-.4-.4-.7-.8-.7zM17.8 26.6c0-.4-.3-.8-.8-.8s-.8.3-.8.8v4.2c0 .4.3.8.8.8s.8-.3.8-.8v-4.2zM21.8 41.2c-.4 0-.8.3-.8.8v10.3c0 .4.3.8.8.8s.8-.3.8-.8V42c0-.4-.3-.8-.8-.8zM22.6 26.6c0-.4-.3-.8-.8-.8s-.8.3-.8.8v8.3c0 .4.3.8.8.8s.8-.3.8-.8v-8.3zM53.7 38.1c-.4 0-.8.3-.8.8v13.4c0 .4.3.8.8.8s.8-.3.8-.8V38.9c-.1-.4-.4-.8-.8-.8zM54.4 26.6c0-.4-.3-.8-.8-.8s-.8.3-.8.8v5.2c0 .4.3.8.8.8s.8-.3.8-.8v-5.2zM49.7 26.6c0-.4-.3-.8-.8-.8s-.8.3-.8.8V40c0 .4.3.8.8.8s.8-.3.8-.8V26.6zM48.9 46.3c-.4 0-.8.3-.8.8v5.2c0 .4.3.8.8.8s.8-.3.8-.8V47c0-.4-.4-.7-.8-.7zM44.9 26.6c0-.4-.3-.8-.8-.8s-.8.3-.8.8v12.3c0 .4.3.8.8.8s.8-.3.8-.8V26.6zM44.2 45.2c-.4 0-.8.3-.8.8v6.3c0 .4.3.8.8.8s.8-.3.8-.8V46c-.1-.4-.4-.8-.8-.8zM29.9 8.8c-.3.3-.3.8 0 1.1.3.3.8.3 1.1 0 1.1-1.1 3-1.1 4.1 0 .3.3.8.3 1.1 0s.3-.8 0-1.1c-1.8-1.7-4.6-1.7-6.3 0z"></path><path d="M38.3 7.6c.3-.3.3-.8 0-1.1-2.9-2.9-7.7-2.9-10.6 0-.3.3-.3.8 0 1.1.3.3.8.3 1.1 0 2.4-2.4 6.2-2.4 8.5 0 .2.3.7.3 1 0z"></path><path d="M26.5 5.4c1.7-1.7 4-2.7 6.5-2.7 2.4 0 4.7.9 6.4 2.7.3.3.8.3 1.1 0s.3-.8 0-1.1c-2-2-4.7-3.1-7.5-3.1s-5.5 1.1-7.5 3.1c-.3.3-.3.8 0 1.1.3.3.7.3 1 0z"></path></g><!----><g data-v-423bf9ae="" id="cf559ddb-f64c-49bb-b93b-a751eca712ac" fill="#222222" transform="matrix(1.4046123027801514,0,0,1.4046123027801514,54.89811706542969,195.25106811523438)"><path d="M5.73 12.70C5.70 12.66 5.64 12.63 5.59 12.63C5.53 12.63 5.47 12.66 5.39 12.74C5.31 12.82 5.18 12.91 5.04 13.01C4.90 13.10 4.70 13.17 4.48 13.26C4.26 13.34 3.96 13.38 3.63 13.38C3.26 13.38 2.93 13.31 2.63 13.17C2.34 13.03 2.09 12.85 1.88 12.59C1.67 12.33 1.50 12.01 1.39 11.63C1.27 11.26 1.22 10.82 1.22 10.33C1.22 9.86 1.27 9.44 1.39 9.06C1.50 8.68 1.67 8.36 1.88 8.09C2.09 7.83 2.35 7.62 2.66 7.48C2.97 7.34 3.32 7.27 3.72 7.27C4.07 7.27 4.47 7.35 4.91 7.50C4.93 7.69 4.93 7.87 4.94 8.04C4.96 8.20 4.97 8.33 4.98 8.43C5.00 8.53 5.00 8.58 5.00 8.60C5.01 8.82 5.11 8.93 5.31 8.93L5.64 8.93L5.64 7.18L5.28 7.07C5.04 7.00 4.75 6.92 4.42 6.85C4.10 6.78 3.85 6.75 3.68 6.75C3.18 6.75 2.74 6.82 2.35 7.00C1.96 7.18 1.62 7.42 1.36 7.74C1.09 8.06 0.90 8.44 0.76 8.88C0.62 9.31 0.53 9.80 0.53 10.33C0.53 10.89 0.60 11.40 0.76 11.84C0.90 12.29 1.11 12.66 1.37 12.96C1.64 13.27 1.96 13.51 2.32 13.66C2.69 13.83 3.08 13.92 3.53 13.92C3.79 13.92 4.05 13.89 4.28 13.83C4.52 13.78 4.75 13.72 4.96 13.64C5.17 13.55 5.33 13.44 5.50 13.31C5.67 13.19 5.80 13.06 5.91 12.92ZM17.15 6.73C16.65 6.73 16.20 6.83 15.81 7.00C15.41 7.17 15.08 7.41 14.80 7.71C14.52 8.02 14.32 8.40 14.18 8.85C14.04 9.30 13.96 9.79 13.96 10.33C13.96 10.88 14.04 11.37 14.18 11.80C14.32 12.24 14.52 12.63 14.80 12.94C15.08 13.24 15.41 13.48 15.81 13.65C16.20 13.82 16.65 13.90 17.15 13.90C17.65 13.90 18.09 13.82 18.48 13.65C18.87 13.48 19.21 13.24 19.47 12.94C19.74 12.63 19.96 12.24 20.10 11.80C20.24 11.37 20.31 10.88 20.31 10.33C20.31 9.79 20.24 9.30 20.10 8.85C19.96 8.40 19.74 8.02 19.47 7.71C19.21 7.41 18.87 7.17 18.48 7.00C18.09 6.83 17.65 6.73 17.15 6.73ZM17.15 13.38C16.73 13.38 16.37 13.31 16.06 13.17C15.75 13.03 15.48 12.82 15.27 12.56C15.06 12.29 14.92 11.97 14.81 11.59C14.70 11.21 14.66 10.79 14.66 10.33C14.66 9.87 14.70 9.45 14.81 9.07C14.92 8.69 15.06 8.37 15.27 8.11C15.48 7.84 15.75 7.62 16.06 7.48C16.37 7.34 16.73 7.27 17.15 7.27C17.57 7.27 17.92 7.34 18.23 7.48C18.54 7.62 18.80 7.84 19.01 8.11C19.22 8.37 19.38 8.69 19.47 9.07C19.57 9.45 19.63 9.87 19.63 10.33C19.63 10.79 19.57 11.21 19.47 11.59C19.38 11.97 19.22 12.29 19.01 12.56C18.80 12.82 18.54 13.03 18.23 13.17C17.92 13.31 17.57 13.38 17.15 13.38ZM35.78 13.29L35.71 13.29L35.60 13.29C35.56 13.29 35.49 13.27 35.39 13.27C35.29 13.27 35.18 13.26 35.06 13.26L35.06 9.37C35.06 8.96 35 8.60 34.90 8.27C34.80 7.95 34.66 7.67 34.47 7.45C34.27 7.22 34.03 7.06 33.74 6.93C33.45 6.80 33.11 6.75 32.73 6.75C32.21 6.75 31.74 6.87 31.32 7.11C30.90 7.36 30.53 7.67 30.21 8.08L30.16 7.03C30.14 6.92 30.07 6.86 29.95 6.86L29.58 6.86L28.57 6.86L28.57 7.13C28.57 7.28 28.66 7.36 28.84 7.38L28.92 7.38C28.95 7.38 28.98 7.39 29.02 7.39L29.23 7.39C29.33 7.39 29.46 7.41 29.58 7.41L29.58 13.26C29.41 13.26 29.27 13.29 29.16 13.29L28.94 13.29L28.84 13.29C28.66 13.30 28.57 13.38 28.57 13.54L28.57 13.82L29.58 13.82L30.24 13.82L31.25 13.82L31.25 13.54C31.25 13.38 31.16 13.30 30.98 13.29L30.90 13.29L30.80 13.29C30.76 13.29 30.69 13.27 30.59 13.27C30.49 13.27 30.37 13.26 30.24 13.26L30.24 8.60C30.55 8.19 30.90 7.87 31.29 7.63C31.68 7.39 32.10 7.28 32.56 7.28C33.18 7.28 33.64 7.46 33.94 7.83C34.23 8.20 34.38 8.71 34.38 9.37L34.38 13.82L35.06 13.82L36.06 13.82L36.06 13.54C36.06 13.38 35.97 13.30 35.78 13.29ZM46.56 13.93C46.86 13.93 47.14 13.86 47.42 13.75C47.68 13.64 47.91 13.48 48.09 13.29L47.91 12.98C47.87 12.94 47.84 12.92 47.80 12.92C47.77 12.92 47.71 12.94 47.66 12.99C47.60 13.05 47.53 13.09 47.45 13.15C47.36 13.20 47.25 13.26 47.12 13.31C47.00 13.37 46.87 13.38 46.70 13.38C46.56 13.38 46.42 13.36 46.31 13.31C46.20 13.27 46.10 13.20 46.02 13.12C45.93 13.03 45.86 12.92 45.81 12.78C45.75 12.64 45.74 12.49 45.74 12.29L45.74 7.57L47.94 7.57L47.94 7.07L45.74 7.07L45.74 4.41L45.42 4.41C45.36 4.41 45.33 4.44 45.30 4.47C45.28 4.49 45.25 4.54 45.25 4.58L45.08 7.07L43.89 7.15L43.89 7.41C43.89 7.46 43.90 7.49 43.93 7.52C43.96 7.55 44.02 7.57 44.07 7.57L45.07 7.57L45.07 12.33C45.07 12.88 45.19 13.27 45.46 13.54C45.72 13.80 46.09 13.93 46.56 13.93ZM61.92 13.29L61.82 13.29L61.60 13.29C61.50 13.29 61.39 13.27 61.28 13.27L61.28 9.28C61.28 8.89 61.24 8.55 61.14 8.23C61.04 7.91 60.90 7.64 60.72 7.42C60.54 7.20 60.30 7.03 60.02 6.92C59.74 6.79 59.42 6.73 59.04 6.73C58.53 6.73 58.09 6.83 57.68 7.01C57.27 7.20 56.90 7.48 56.53 7.84L56.64 8.05C56.69 8.13 56.76 8.18 56.85 8.18C56.92 8.18 57.02 8.12 57.12 8.02C57.22 7.92 57.36 7.84 57.53 7.73C57.69 7.62 57.88 7.52 58.11 7.42C58.35 7.32 58.63 7.28 58.97 7.28C59.51 7.28 59.93 7.45 60.21 7.80C60.49 8.15 60.62 8.64 60.62 9.28L60.62 10.01C59.84 10.02 59.16 10.09 58.60 10.21C58.04 10.32 57.58 10.47 57.22 10.65C56.85 10.84 56.60 11.06 56.43 11.31C56.27 11.56 56.18 11.83 56.18 12.12C56.18 12.45 56.24 12.73 56.34 12.95C56.45 13.17 56.59 13.36 56.76 13.50C56.92 13.64 57.13 13.75 57.36 13.82C57.58 13.89 57.81 13.93 58.04 13.93C58.32 13.93 58.59 13.90 58.83 13.85C59.07 13.79 59.28 13.71 59.49 13.61C59.70 13.51 59.89 13.38 60.09 13.23C60.27 13.08 60.45 12.91 60.65 12.73L60.75 13.62C60.77 13.75 60.87 13.82 61.01 13.82L61.03 13.82L61.28 13.82L62.20 13.82L62.20 13.54C62.20 13.38 62.10 13.30 61.92 13.29ZM60.62 12.26C60.45 12.43 60.30 12.60 60.13 12.74C59.96 12.88 59.78 13.01 59.58 13.12C59.39 13.23 59.18 13.30 58.95 13.36C58.73 13.41 58.48 13.44 58.21 13.44C58.03 13.44 57.85 13.43 57.68 13.37C57.51 13.31 57.37 13.24 57.25 13.13C57.12 13.02 57.01 12.88 56.94 12.71C56.85 12.54 56.83 12.35 56.83 12.11C56.83 11.86 56.90 11.63 57.05 11.44C57.20 11.24 57.43 11.09 57.74 10.95C58.04 10.81 58.44 10.70 58.91 10.61C59.39 10.53 59.96 10.47 60.62 10.46ZM75.53 12.70C75.50 12.66 75.45 12.63 75.39 12.63C75.33 12.63 75.28 12.66 75.19 12.74C75.11 12.82 74.98 12.91 74.84 13.01C74.70 13.10 74.51 13.17 74.28 13.26C74.06 13.34 73.77 13.38 73.43 13.38C73.07 13.38 72.73 13.31 72.44 13.17C72.14 13.03 71.89 12.85 71.68 12.59C71.47 12.33 71.30 12.01 71.19 11.63C71.08 11.26 71.02 10.82 71.02 10.33C71.02 9.86 71.08 9.44 71.19 9.06C71.30 8.68 71.47 8.36 71.68 8.09C71.89 7.83 72.16 7.62 72.46 7.48C72.77 7.34 73.12 7.27 73.53 7.27C73.88 7.27 74.27 7.35 74.72 7.50C74.73 7.69 74.73 7.87 74.75 8.04C74.76 8.20 74.77 8.33 74.79 8.43C74.80 8.53 74.80 8.58 74.80 8.60C74.82 8.82 74.91 8.93 75.11 8.93L75.45 8.93L75.45 7.18L75.08 7.07C74.84 7.00 74.55 6.92 74.23 6.85C73.91 6.78 73.65 6.75 73.49 6.75C72.98 6.75 72.55 6.82 72.16 7.00C71.76 7.18 71.43 7.42 71.16 7.74C70.90 8.06 70.70 8.44 70.56 8.88C70.42 9.31 70.34 9.80 70.34 10.33C70.34 10.89 70.41 11.40 70.56 11.84C70.70 12.29 70.91 12.66 71.18 12.96C71.44 13.27 71.76 13.51 72.13 13.66C72.49 13.83 72.88 13.92 73.33 13.92C73.60 13.92 73.85 13.89 74.09 13.83C74.33 13.78 74.55 13.72 74.76 13.64C74.97 13.55 75.14 13.44 75.31 13.31C75.47 13.19 75.60 13.06 75.71 12.92ZM86.28 13.93C86.58 13.93 86.86 13.86 87.14 13.75C87.40 13.64 87.63 13.48 87.81 13.29L87.63 12.98C87.58 12.94 87.56 12.92 87.51 12.92C87.49 12.92 87.43 12.94 87.37 12.99C87.32 13.05 87.25 13.09 87.16 13.15C87.08 13.20 86.97 13.26 86.84 13.31C86.72 13.37 86.59 13.38 86.42 13.38C86.28 13.38 86.14 13.36 86.03 13.31C85.92 13.27 85.82 13.20 85.74 13.12C85.65 13.03 85.58 12.92 85.53 12.78C85.47 12.64 85.46 12.49 85.46 12.29L85.46 7.57L87.65 7.57L87.65 7.07L85.46 7.07L85.46 4.41L85.13 4.41C85.08 4.41 85.05 4.44 85.02 4.47C84.99 4.49 84.97 4.54 84.97 4.58L84.80 7.07L83.61 7.15L83.61 7.41C83.61 7.46 83.62 7.49 83.65 7.52C83.68 7.55 83.73 7.57 83.79 7.57L84.78 7.57L84.78 12.33C84.78 12.88 84.91 13.27 85.18 13.54C85.44 13.80 85.81 13.93 86.28 13.93ZM98.43 13.29L98.36 13.29L98.25 13.29C98.21 13.29 98.14 13.27 98.04 13.27C97.94 13.27 97.83 13.26 97.71 13.26L97.71 3.63L97.03 3.63L96.03 3.63L96.03 3.91C96.03 4.06 96.12 4.14 96.31 4.16L96.38 4.16C96.40 4.16 96.45 4.17 96.49 4.17L96.70 4.17C96.80 4.17 96.91 4.19 97.03 4.19L97.03 13.26C96.88 13.26 96.74 13.29 96.63 13.29L96.39 13.29L96.31 13.29C96.12 13.30 96.03 13.38 96.03 13.54L96.03 13.82L97.03 13.82L97.71 13.82L98.71 13.82L98.71 13.54C98.71 13.38 98.62 13.30 98.43 13.29ZM109.93 6.73C109.44 6.73 108.99 6.83 108.60 7.00C108.21 7.17 107.88 7.41 107.62 7.71C107.35 8.02 107.14 8.39 107.00 8.81C106.86 9.23 106.78 9.69 106.78 10.19C106.78 10.78 106.86 11.31 107.02 11.77C107.17 12.24 107.38 12.61 107.66 12.94C107.94 13.26 108.28 13.50 108.67 13.66C109.06 13.83 109.49 13.90 109.97 13.90C110.24 13.90 110.50 13.89 110.75 13.83C111.01 13.78 111.26 13.71 111.48 13.62C111.71 13.54 111.92 13.44 112.10 13.31C112.28 13.19 112.43 13.06 112.55 12.92L112.36 12.70C112.34 12.66 112.28 12.63 112.22 12.63C112.18 12.63 112.10 12.66 112.00 12.74C111.90 12.82 111.76 12.91 111.58 13.01C111.41 13.10 111.19 13.17 110.94 13.26C110.68 13.34 110.38 13.38 110.03 13.38C109.63 13.38 109.28 13.31 108.96 13.17C108.64 13.03 108.37 12.84 108.15 12.57C107.93 12.31 107.76 11.97 107.63 11.58C107.51 11.19 107.45 10.71 107.45 10.19L107.45 10.07L112.48 10.07C112.55 10.07 112.59 10.05 112.62 10.01C112.64 9.97 112.67 9.90 112.67 9.80C112.67 9.31 112.60 8.88 112.46 8.50C112.32 8.12 112.14 7.78 111.89 7.53C111.65 7.28 111.36 7.08 111.02 6.94C110.68 6.80 110.32 6.73 109.93 6.73ZM109.94 7.24C110.26 7.24 110.54 7.29 110.81 7.41C111.08 7.52 111.30 7.67 111.48 7.88C111.66 8.09 111.82 8.33 111.92 8.62C112.01 8.92 112.07 9.25 112.07 9.63L107.48 9.63C107.52 9.27 107.60 8.93 107.73 8.64C107.86 8.34 108.02 8.09 108.23 7.88C108.44 7.67 108.70 7.52 108.98 7.41C109.26 7.29 109.58 7.24 109.94 7.24ZM125.45 11.06C125.34 10.86 125.20 10.71 125.02 10.57C124.84 10.43 124.63 10.32 124.40 10.23C124.18 10.15 123.93 10.05 123.69 9.98C123.45 9.91 123.21 9.83 122.98 9.76C122.75 9.69 122.54 9.59 122.36 9.49C122.18 9.39 122.04 9.27 121.93 9.13C121.81 8.99 121.76 8.81 121.76 8.58C121.76 8.40 121.79 8.23 121.87 8.08C121.95 7.92 122.07 7.77 122.22 7.64C122.36 7.52 122.54 7.43 122.75 7.36C122.96 7.29 123.19 7.25 123.44 7.25C123.80 7.25 124.17 7.31 124.54 7.43C124.56 7.60 124.57 7.77 124.59 7.92C124.60 8.08 124.60 8.19 124.61 8.27C124.63 8.36 124.63 8.43 124.63 8.44C124.64 8.67 124.74 8.78 124.94 8.78L125.27 8.78L125.27 7.11C124.54 6.86 123.93 6.75 123.42 6.75C123.07 6.75 122.75 6.80 122.47 6.90C122.19 7.00 121.94 7.14 121.74 7.31C121.55 7.48 121.39 7.69 121.28 7.91C121.17 8.13 121.13 8.37 121.13 8.62C121.13 8.92 121.18 9.16 121.30 9.35C121.41 9.55 121.55 9.70 121.73 9.84C121.91 9.98 122.11 10.09 122.35 10.18C122.57 10.26 122.81 10.35 123.06 10.42C123.30 10.49 123.54 10.57 123.77 10.64C124.00 10.71 124.21 10.81 124.39 10.92C124.57 11.03 124.73 11.16 124.84 11.31C124.95 11.47 125.01 11.65 125.01 11.89C125.01 12.10 124.96 12.29 124.89 12.49C124.81 12.68 124.70 12.84 124.54 12.98C124.39 13.12 124.21 13.23 123.98 13.31C123.76 13.40 123.51 13.44 123.21 13.44C122.68 13.44 122.23 13.37 121.86 13.22C121.84 13.03 121.83 12.87 121.81 12.71C121.80 12.56 121.80 12.43 121.79 12.35C121.77 12.26 121.77 12.19 121.77 12.18C121.76 11.96 121.66 11.84 121.46 11.84L121.13 11.84L121.13 13.54C121.80 13.79 122.49 13.93 123.19 13.93C123.58 13.93 123.91 13.87 124.22 13.76C124.53 13.65 124.78 13.50 124.99 13.30C125.20 13.10 125.36 12.89 125.47 12.63C125.58 12.36 125.64 12.08 125.64 11.77C125.64 11.49 125.57 11.26 125.45 11.06ZM138.43 11.06C138.32 10.86 138.18 10.71 138.00 10.57C137.82 10.43 137.61 10.32 137.38 10.23C137.16 10.15 136.91 10.05 136.67 9.98C136.43 9.91 136.19 9.83 135.95 9.76C135.73 9.69 135.52 9.59 135.34 9.49C135.16 9.39 135.02 9.27 134.90 9.13C134.79 8.99 134.74 8.81 134.74 8.58C134.74 8.40 134.76 8.23 134.85 8.08C134.93 7.92 135.04 7.77 135.20 7.64C135.34 7.52 135.52 7.43 135.73 7.36C135.94 7.29 136.16 7.25 136.42 7.25C136.78 7.25 137.14 7.31 137.52 7.43C137.54 7.60 137.55 7.77 137.56 7.92C137.58 8.08 137.58 8.19 137.59 8.27C137.61 8.36 137.61 8.43 137.61 8.44C137.62 8.67 137.72 8.78 137.91 8.78L138.25 8.78L138.25 7.11C137.52 6.86 136.91 6.75 136.40 6.75C136.05 6.75 135.73 6.80 135.45 6.90C135.17 7.00 134.92 7.14 134.72 7.31C134.53 7.48 134.37 7.69 134.26 7.91C134.15 8.13 134.11 8.37 134.11 8.62C134.11 8.92 134.16 9.16 134.27 9.35C134.39 9.55 134.53 9.70 134.71 9.84C134.89 9.98 135.09 10.09 135.32 10.18C135.55 10.26 135.79 10.35 136.04 10.42C136.28 10.49 136.51 10.57 136.75 10.64C136.98 10.71 137.19 10.81 137.37 10.92C137.55 11.03 137.70 11.16 137.82 11.31C137.93 11.47 137.98 11.65 137.98 11.89C137.98 12.10 137.94 12.29 137.87 12.49C137.79 12.68 137.68 12.84 137.52 12.98C137.37 13.12 137.19 13.23 136.96 13.31C136.74 13.40 136.49 13.44 136.19 13.44C135.66 13.44 135.21 13.37 134.83 13.22C134.82 13.03 134.81 12.87 134.79 12.71C134.78 12.56 134.78 12.43 134.76 12.35C134.75 12.26 134.75 12.19 134.75 12.18C134.74 11.96 134.64 11.84 134.44 11.84L134.11 11.84L134.11 13.54C134.78 13.79 135.46 13.93 136.16 13.93C136.56 13.93 136.89 13.87 137.20 13.76C137.51 13.65 137.76 13.50 137.97 13.30C138.18 13.10 138.33 12.89 138.45 12.63C138.56 12.36 138.61 12.08 138.61 11.77C138.61 11.49 138.54 11.26 138.43 11.06ZM160.22 6.73C159.73 6.73 159.28 6.83 158.89 7.00C158.49 7.17 158.17 7.41 157.91 7.71C157.64 8.02 157.43 8.39 157.29 8.81C157.15 9.23 157.07 9.69 157.07 10.19C157.07 10.78 157.15 11.31 157.30 11.77C157.46 12.24 157.67 12.61 157.95 12.94C158.23 13.26 158.56 13.50 158.96 13.66C159.35 13.83 159.78 13.90 160.26 13.90C160.52 13.90 160.79 13.89 161.04 13.83C161.29 13.78 161.55 13.71 161.77 13.62C161.99 13.54 162.20 13.44 162.39 13.31C162.57 13.19 162.72 13.06 162.83 12.92L162.65 12.70C162.62 12.66 162.57 12.63 162.51 12.63C162.47 12.63 162.39 12.66 162.29 12.74C162.19 12.82 162.05 12.91 161.87 13.01C161.70 13.10 161.48 13.17 161.22 13.26C160.97 13.34 160.66 13.38 160.31 13.38C159.92 13.38 159.57 13.31 159.25 13.17C158.93 13.03 158.66 12.84 158.44 12.57C158.21 12.31 158.05 11.97 157.92 11.58C157.79 11.19 157.74 10.71 157.74 10.19L157.74 10.07L162.76 10.07C162.83 10.07 162.88 10.05 162.90 10.01C162.93 9.97 162.96 9.90 162.96 9.80C162.96 9.31 162.89 8.88 162.75 8.50C162.61 8.12 162.43 7.78 162.18 7.53C161.94 7.28 161.64 7.08 161.31 6.94C160.97 6.80 160.61 6.73 160.22 6.73ZM160.23 7.24C160.55 7.24 160.83 7.29 161.10 7.41C161.36 7.52 161.59 7.67 161.77 7.88C161.95 8.09 162.11 8.33 162.20 8.62C162.30 8.92 162.36 9.25 162.36 9.63L157.77 9.63C157.81 9.27 157.89 8.93 158.02 8.64C158.14 8.34 158.31 8.09 158.52 7.88C158.73 7.67 158.98 7.52 159.26 7.41C159.54 7.29 159.87 7.24 160.23 7.24ZM178.43 13.29L178.36 13.29L178.25 13.29C178.21 13.29 178.14 13.27 178.04 13.27C177.94 13.27 177.83 13.26 177.70 13.26L177.70 9.37C177.70 8.96 177.65 8.60 177.55 8.27C177.45 7.95 177.31 7.67 177.11 7.45C176.92 7.22 176.68 7.06 176.39 6.93C176.09 6.80 175.76 6.75 175.38 6.75C174.86 6.75 174.38 6.87 173.96 7.11C173.54 7.36 173.18 7.67 172.86 8.08L172.80 7.03C172.79 6.92 172.72 6.86 172.59 6.86L172.23 6.86L171.22 6.86L171.22 7.13C171.22 7.28 171.30 7.36 171.49 7.38L171.57 7.38C171.60 7.38 171.63 7.39 171.67 7.39L171.88 7.39C171.98 7.39 172.10 7.41 172.23 7.41L172.23 13.26C172.06 13.26 171.92 13.29 171.81 13.29L171.58 13.29L171.49 13.29C171.30 13.30 171.22 13.38 171.22 13.54L171.22 13.82L172.23 13.82L172.89 13.82L173.89 13.82L173.89 13.54C173.89 13.38 173.81 13.30 173.63 13.29L173.54 13.29L173.45 13.29C173.40 13.29 173.33 13.27 173.24 13.27C173.14 13.27 173.01 13.26 172.89 13.26L172.89 8.60C173.19 8.19 173.54 7.87 173.94 7.63C174.33 7.39 174.75 7.28 175.21 7.28C175.83 7.28 176.29 7.46 176.58 7.83C176.88 8.20 177.03 8.71 177.03 9.37L177.03 13.82L177.70 13.82L178.71 13.82L178.71 13.54C178.71 13.38 178.61 13.30 178.43 13.29ZM189.98 6.73C189.49 6.73 189.04 6.83 188.65 7.00C188.26 7.17 187.94 7.41 187.67 7.71C187.40 8.02 187.19 8.39 187.05 8.81C186.91 9.23 186.83 9.69 186.83 10.19C186.83 10.78 186.91 11.31 187.07 11.77C187.22 12.24 187.43 12.61 187.71 12.94C187.99 13.26 188.33 13.50 188.72 13.66C189.11 13.83 189.55 13.90 190.02 13.90C190.29 13.90 190.55 13.89 190.81 13.83C191.06 13.78 191.31 13.71 191.53 13.62C191.76 13.54 191.97 13.44 192.15 13.31C192.33 13.19 192.49 13.06 192.60 12.92L192.42 12.70C192.39 12.66 192.33 12.63 192.28 12.63C192.23 12.63 192.15 12.66 192.05 12.74C191.95 12.82 191.81 12.91 191.63 13.01C191.46 13.10 191.24 13.17 190.99 13.26C190.74 13.34 190.43 13.38 190.08 13.38C189.69 13.38 189.34 13.31 189.01 13.17C188.69 13.03 188.43 12.84 188.20 12.57C187.98 12.31 187.81 11.97 187.68 11.58C187.56 11.19 187.50 10.71 187.50 10.19L187.50 10.07L192.53 10.07C192.60 10.07 192.64 10.05 192.67 10.01C192.70 9.97 192.72 9.90 192.72 9.80C192.72 9.31 192.65 8.88 192.51 8.50C192.37 8.12 192.19 7.78 191.94 7.53C191.70 7.28 191.41 7.08 191.07 6.94C190.74 6.80 190.37 6.73 189.98 6.73ZM189.99 7.24C190.32 7.24 190.60 7.29 190.86 7.41C191.13 7.52 191.35 7.67 191.53 7.88C191.72 8.09 191.87 8.33 191.97 8.62C192.07 8.92 192.12 9.25 192.12 9.63L187.53 9.63C187.57 9.27 187.66 8.93 187.78 8.64C187.91 8.34 188.08 8.09 188.29 7.88C188.50 7.67 188.75 7.52 189.03 7.41C189.31 7.29 189.63 7.24 189.99 7.24ZM205.48 6.80C205.30 6.76 205.11 6.73 204.90 6.73C204.36 6.73 203.90 6.89 203.52 7.21C203.14 7.53 202.85 7.98 202.62 8.54L202.57 7.07C202.57 6.99 202.54 6.93 202.51 6.90C202.48 6.87 202.43 6.86 202.34 6.86L201.99 6.86L201.99 6.86L200.98 6.86L200.98 7.13C200.98 7.31 201.08 7.36 201.25 7.38C201.33 7.38 201.42 7.38 201.99 7.41L201.99 13.26C201.42 13.29 201.33 13.29 201.25 13.29C201.08 13.30 200.98 13.36 200.98 13.54L200.98 13.82L201.99 13.82L202.65 13.82L202.65 13.82L203.66 13.82L203.66 13.54C203.66 13.36 203.56 13.30 203.39 13.29C203.31 13.29 203.22 13.29 202.65 13.26L202.65 9.30C202.86 8.68 203.14 8.20 203.48 7.88C203.81 7.56 204.25 7.39 204.78 7.39C204.92 7.39 205.04 7.41 205.16 7.42C205.27 7.43 205.38 7.45 205.45 7.48C205.53 7.50 205.58 7.53 205.63 7.55C205.69 7.56 205.73 7.57 205.76 7.57C205.84 7.57 205.88 7.53 205.90 7.46L205.98 7.00C205.83 6.92 205.66 6.85 205.48 6.80ZM216.69 6.73C216.31 6.73 215.98 6.79 215.67 6.90C215.36 7.01 215.11 7.15 214.89 7.35C214.66 7.55 214.49 7.77 214.38 8.05C214.27 8.33 214.20 8.64 214.20 8.97C214.20 9.39 214.30 9.76 214.48 10.08C214.66 10.40 214.91 10.65 215.25 10.85C215.11 10.92 215.00 11.00 214.89 11.10C214.77 11.20 214.69 11.28 214.62 11.40C214.55 11.51 214.49 11.61 214.45 11.72C214.41 11.83 214.40 11.93 214.40 12.03C214.40 12.29 214.45 12.49 214.59 12.64C214.73 12.80 214.91 12.89 215.15 12.98C214.73 13.12 214.38 13.33 214.14 13.59C213.91 13.86 213.78 14.18 213.78 14.55C213.78 14.80 213.85 15.05 213.98 15.27C214.10 15.50 214.28 15.69 214.54 15.86C214.79 16.03 215.10 16.17 215.46 16.27C215.82 16.37 216.26 16.42 216.75 16.42C217.22 16.42 217.67 16.35 218.06 16.23C218.46 16.10 218.76 15.95 219.04 15.74C219.32 15.53 219.53 15.29 219.67 15.02C219.81 14.76 219.88 14.49 219.88 14.20C219.88 13.89 219.83 13.64 219.69 13.44C219.55 13.24 219.35 13.12 219.13 13.01C218.90 12.89 218.62 12.82 218.33 12.78C218.04 12.74 217.74 12.71 217.43 12.70C217.13 12.68 216.82 12.66 216.52 12.64C216.23 12.63 215.96 12.61 215.74 12.56C215.52 12.50 215.32 12.43 215.18 12.32C215.04 12.21 214.97 12.05 214.97 11.86C214.97 11.72 215.03 11.56 215.14 11.41C215.25 11.26 215.40 11.13 215.60 11.02C215.92 11.14 216.29 11.19 216.69 11.19C217.06 11.19 217.39 11.14 217.70 11.03C218.01 10.92 218.26 10.78 218.48 10.58C218.71 10.39 218.86 10.16 218.99 9.88C219.11 9.60 219.17 9.31 219.17 8.97C219.17 8.72 219.14 8.48 219.07 8.26C219.00 8.04 218.89 7.84 218.76 7.66L219.83 7.57C219.95 7.56 220.02 7.50 220.02 7.39L220.02 7.15L218.23 7.15C218.02 7.01 217.78 6.92 217.53 6.85C217.28 6.78 217.00 6.73 216.69 6.73ZM219.28 14.29C219.28 14.53 219.21 14.74 219.09 14.94C218.96 15.13 218.78 15.33 218.55 15.47C218.33 15.61 218.06 15.72 217.76 15.81C217.45 15.89 217.11 15.92 216.76 15.92C216.38 15.92 216.05 15.88 215.75 15.81C215.46 15.74 215.19 15.62 215.00 15.50C214.80 15.37 214.65 15.22 214.54 15.05C214.42 14.88 214.38 14.69 214.38 14.48C214.38 14.31 214.42 14.17 214.48 14.03C214.54 13.89 214.62 13.76 214.73 13.65C214.84 13.54 214.96 13.43 215.11 13.34C215.26 13.26 215.43 13.17 215.61 13.10C215.85 13.15 216.10 13.17 216.38 13.19C216.66 13.20 216.92 13.22 217.20 13.23C217.48 13.24 217.73 13.26 217.98 13.29C218.23 13.31 218.46 13.38 218.65 13.45C218.85 13.52 218.99 13.62 219.10 13.76C219.21 13.90 219.28 14.07 219.28 14.29ZM216.69 10.74C216.40 10.74 216.15 10.70 215.91 10.61C215.67 10.53 215.47 10.40 215.31 10.25C215.14 10.09 215.03 9.91 214.94 9.70C214.86 9.49 214.82 9.25 214.82 8.99C214.82 8.72 214.86 8.48 214.94 8.26C215.03 8.04 215.14 7.87 215.31 7.71C215.47 7.56 215.67 7.43 215.91 7.35C216.15 7.27 216.40 7.22 216.69 7.22C216.99 7.22 217.25 7.27 217.48 7.35C217.70 7.43 217.90 7.56 218.06 7.71C218.23 7.87 218.36 8.04 218.44 8.26C218.53 8.48 218.57 8.71 218.57 8.97C218.57 9.24 218.53 9.49 218.44 9.70C218.36 9.91 218.23 10.09 218.08 10.25C217.92 10.40 217.73 10.53 217.49 10.61C217.25 10.70 216.99 10.74 216.69 10.74ZM234.79 6.86L234.28 6.86L232.88 6.86L232.88 7.13C232.88 7.28 232.97 7.36 233.16 7.38L233.23 7.38C233.25 7.38 233.28 7.39 233.32 7.39L233.53 7.39C233.63 7.39 233.74 7.41 233.87 7.41L231.73 12.45L231.64 12.66C231.62 12.73 231.60 12.80 231.57 12.87C231.56 12.80 231.52 12.73 231.50 12.66C231.48 12.59 231.46 12.52 231.43 12.45L229.26 7.41C229.42 7.41 229.56 7.39 229.67 7.39C229.78 7.39 229.87 7.38 229.89 7.38L229.98 7.38C230.16 7.36 230.26 7.28 230.26 7.13L230.26 6.86L228.84 6.86L228.84 6.86L228.28 6.86L227.82 6.86L227.82 7.13C227.82 7.28 227.92 7.36 228.10 7.38C228.10 7.38 228.24 7.38 228.52 7.39L231.24 13.57L230.01 16.28L230.48 16.28C230.57 16.28 230.64 16.25 230.68 16.21C230.72 16.17 230.76 16.13 230.79 16.06L234.56 7.39L234.81 7.39C234.89 7.39 234.93 7.38 234.96 7.38L235.03 7.38C235.21 7.36 235.31 7.28 235.31 7.13L235.31 6.86Z"></path></g></svg>