<svg data-v-423bf9ae="" xmlns="http://www.w3.org/2000/svg" viewBox="0 0 439.69983413581537 60" class="font"><!----><!----><!----><g data-v-423bf9ae="" id="f4ee10fe-2002-433f-a7c9-78563101d2e4" fill="black" transform="matrix(5.628518104553223,0,0,5.628518104553223,-4.72796630859375,-32.02627182006836)"><path d="M8.72 16.19L8.72 15.11L8.72 15.11Q8.70 15.19 8.41 15.52L8.41 15.52L8.41 15.52Q8.20 15.76 7.86 15.95L7.86 15.95L7.86 15.95Q7.52 16.14 6.95 16.25L6.95 16.25L6.95 16.25Q6.38 16.35 5.45 16.35L5.45 16.35L5.45 16.35Q4.21 16.35 3.34 16.23L3.34 16.23L3.34 16.23Q2.46 16.10 1.91 15.84L1.91 15.84L1.91 15.84Q1.35 15.57 1.10 15.16L1.10 15.16L1.10 15.16Q0.84 14.75 0.84 14.18L0.84 14.18L0.84 14.18Q0.84 13.59 0.98 13.18L0.98 13.18L0.98 13.18Q1.12 12.76 1.39 12.48L1.39 12.48L1.39 12.48Q1.66 12.20 2.04 12.04L2.04 12.04L2.04 12.04Q2.43 11.89 2.92 11.81L2.92 11.81L2.92 11.81Q3.40 11.72 3.99 11.70L3.99 11.70L3.99 11.70Q4.57 11.68 5.22 11.68L5.22 11.68L5.22 11.68Q6.16 11.68 6.79 11.76L6.79 11.76L6.79 11.76Q7.42 11.84 7.82 11.96L7.82 11.96L7.82 11.96Q8.22 12.08 8.42 12.22L8.42 12.22L8.42 12.22Q8.63 12.35 8.72 12.47L8.72 12.47L8.72 12.47Q8.72 11.70 8.65 11.16L8.65 11.16L8.65 11.16Q8.59 10.62 8.44 10.26L8.44 10.26L8.44 10.26Q8.29 9.90 8.06 9.68L8.06 9.68L8.06 9.68Q7.83 9.47 7.49 9.36L7.49 9.36L7.49 9.36Q7.15 9.25 6.70 9.22L6.70 9.22L6.70 9.22Q6.25 9.19 5.67 9.19L5.67 9.19L5.67 9.19Q4.76 9.19 4.17 9.23L4.17 9.23L4.17 9.23Q3.58 9.28 3.23 9.41L3.23 9.41L3.23 9.41Q2.88 9.54 2.73 9.77L2.73 9.77L2.73 9.77Q2.59 9.99 2.59 10.36L2.59 10.36L1.28 10.36L1.28 10.36Q1.28 9.74 1.50 9.31L1.50 9.31L1.50 9.31Q1.72 8.88 2.24 8.61L2.24 8.61L2.24 8.61Q2.75 8.34 3.60 8.22L3.60 8.22L3.60 8.22Q4.44 8.09 5.67 8.09L5.67 8.09L5.67 8.09Q6.87 8.09 7.70 8.29L7.70 8.29L7.70 8.29Q8.54 8.49 9.05 8.99L9.05 8.99L9.05 8.99Q9.57 9.49 9.80 10.33L9.80 10.33L9.80 10.33Q10.03 11.18 10.03 12.47L10.03 12.47L10.03 16.19L8.72 16.19ZM5.67 15.31L5.67 15.31L5.67 15.31Q6.54 15.31 7.12 15.23L7.12 15.23L7.12 15.23Q7.70 15.15 8.06 14.98L8.06 14.98L8.06 14.98Q8.42 14.82 8.57 14.57L8.57 14.57L8.57 14.57Q8.72 14.33 8.72 14L8.72 14L8.72 14Q8.72 13.67 8.54 13.44L8.54 13.44L8.54 13.44Q8.37 13.21 7.96 13.07L7.96 13.07L7.96 13.07Q7.55 12.93 6.88 12.86L6.88 12.86L6.88 12.86Q6.21 12.80 5.23 12.80L5.23 12.80L5.23 12.80Q4.25 12.80 3.64 12.83L3.64 12.83L3.64 12.83Q3.04 12.87 2.71 12.99L2.71 12.99L2.71 12.99Q2.38 13.11 2.27 13.35L2.27 13.35L2.27 13.35Q2.15 13.59 2.15 14L2.15 14L2.15 14Q2.15 14.41 2.27 14.67L2.27 14.67L2.27 14.67Q2.39 14.92 2.76 15.07L2.76 15.07L2.76 15.07Q3.13 15.21 3.82 15.26L3.82 15.26L3.82 15.26Q4.52 15.31 5.67 15.31ZM11.56 12.26L11.56 12.26L11.56 12.26Q11.56 11.44 11.64 10.81L11.64 10.81L11.64 10.81Q11.72 10.19 11.93 9.72L11.93 9.72L11.93 9.72Q12.14 9.26 12.49 8.94L12.49 8.94L12.49 8.94Q12.84 8.63 13.38 8.44L13.38 8.44L13.38 8.44Q13.92 8.25 14.66 8.17L14.66 8.17L14.66 8.17Q15.39 8.09 16.38 8.09L16.38 8.09L16.38 8.09Q17.69 8.09 18.54 8.25L18.54 8.25L18.54 8.25Q19.39 8.41 19.88 8.74L19.88 8.74L19.88 8.74Q20.37 9.07 20.56 9.58L20.56 9.58L20.56 9.58Q20.75 10.09 20.75 10.79L20.75 10.79L19.44 10.79L19.44 10.79Q19.44 10.54 19.43 10.32L19.43 10.32L19.43 10.32Q19.41 10.10 19.33 9.93L19.33 9.93L19.33 9.93Q19.24 9.75 19.06 9.61L19.06 9.61L19.06 9.61Q18.87 9.47 18.53 9.37L18.53 9.37L18.53 9.37Q18.19 9.28 17.67 9.23L17.67 9.23L17.67 9.23Q17.14 9.18 16.38 9.18L16.38 9.18L16.38 9.18Q15.50 9.18 14.91 9.24L14.91 9.24L14.91 9.24Q14.31 9.30 13.92 9.44L13.92 9.44L13.92 9.44Q13.53 9.58 13.32 9.82L13.32 9.82L13.32 9.82Q13.10 10.06 13.01 10.40L13.01 10.40L13.01 10.40Q12.91 10.74 12.90 11.20L12.90 11.20L12.90 11.20Q12.88 11.66 12.88 12.26L12.88 12.26L12.88 12.26Q12.88 12.85 12.90 13.31L12.90 13.31L12.90 13.31Q12.91 13.76 13.01 14.10L13.01 14.10L13.01 14.10Q13.10 14.44 13.32 14.67L13.32 14.67L13.32 14.67Q13.53 14.90 13.92 15.05L13.92 15.05L13.92 15.05Q14.31 15.19 14.91 15.25L14.91 15.25L14.91 15.25Q15.50 15.31 16.38 15.31L16.38 15.31L16.38 15.31Q17.14 15.31 17.67 15.26L17.67 15.26L17.67 15.26Q18.19 15.20 18.53 15.10L18.53 15.10L18.53 15.10Q18.87 15.00 19.06 14.85L19.06 14.85L19.06 14.85Q19.24 14.70 19.33 14.50L19.33 14.50L19.33 14.50Q19.41 14.31 19.43 14.07L19.43 14.07L19.43 14.07Q19.44 13.84 19.44 13.56L19.44 13.56L20.75 13.56L20.75 13.56Q20.75 14.28 20.56 14.81L20.56 14.81L20.56 14.81Q20.37 15.33 19.88 15.67L19.88 15.67L19.88 15.67Q19.39 16.01 18.54 16.17L18.54 16.17L18.54 16.17Q17.69 16.34 16.38 16.34L16.38 16.34L16.38 16.34Q15.39 16.34 14.66 16.26L14.66 16.26L14.66 16.26Q13.92 16.17 13.38 15.99L13.38 15.99L13.38 15.99Q12.84 15.80 12.49 15.49L12.49 15.49L12.49 15.49Q12.14 15.18 11.93 14.73L11.93 14.73L11.93 14.73Q11.72 14.28 11.64 13.67L11.64 13.67L11.64 13.67Q11.56 13.06 11.56 12.26ZM22.29 12.26L22.29 12.26L22.29 12.26Q22.29 11.44 22.37 10.81L22.37 10.81L22.37 10.81Q22.45 10.19 22.66 9.72L22.66 9.72L22.66 9.72Q22.87 9.26 23.22 8.94L23.22 8.94L23.22 8.94Q23.57 8.63 24.11 8.44L24.11 8.44L24.11 8.44Q24.64 8.25 25.38 8.17L25.38 8.17L25.38 8.17Q26.12 8.09 27.10 8.09L27.10 8.09L27.10 8.09Q28.42 8.09 29.26 8.25L29.26 8.25L29.26 8.25Q30.11 8.41 30.60 8.74L30.60 8.74L30.60 8.74Q31.10 9.07 31.29 9.58L31.29 9.58L31.29 9.58Q31.48 10.09 31.48 10.79L31.48 10.79L30.17 10.79L30.17 10.79Q30.17 10.54 30.15 10.32L30.15 10.32L30.15 10.32Q30.14 10.10 30.05 9.93L30.05 9.93L30.05 9.93Q29.97 9.75 29.78 9.61L29.78 9.61L29.78 9.61Q29.60 9.47 29.26 9.37L29.26 9.37L29.26 9.37Q28.92 9.28 28.39 9.23L28.39 9.23L28.39 9.23Q27.87 9.18 27.10 9.18L27.10 9.18L27.10 9.18Q26.23 9.18 25.63 9.24L25.63 9.24L25.63 9.24Q25.03 9.30 24.64 9.44L24.64 9.44L24.64 9.44Q24.25 9.58 24.04 9.82L24.04 9.82L24.04 9.82Q23.83 10.06 23.73 10.40L23.73 10.40L23.73 10.40Q23.64 10.74 23.62 11.20L23.62 11.20L23.62 11.20Q23.60 11.66 23.60 12.26L23.60 12.26L23.60 12.26Q23.60 12.85 23.62 13.31L23.62 13.31L23.62 13.31Q23.64 13.76 23.73 14.10L23.73 14.10L23.73 14.10Q23.83 14.44 24.04 14.67L24.04 14.67L24.04 14.67Q24.25 14.90 24.64 15.05L24.64 15.05L24.64 15.05Q25.03 15.19 25.63 15.25L25.63 15.25L25.63 15.25Q26.23 15.31 27.10 15.31L27.10 15.31L27.10 15.31Q27.87 15.31 28.39 15.26L28.39 15.26L28.39 15.26Q28.92 15.20 29.26 15.10L29.26 15.10L29.26 15.10Q29.60 15.00 29.78 14.85L29.78 14.85L29.78 14.85Q29.97 14.70 30.05 14.50L30.05 14.50L30.05 14.50Q30.14 14.31 30.15 14.07L30.15 14.07L30.15 14.07Q30.17 13.84 30.17 13.56L30.17 13.56L31.48 13.56L31.48 13.56Q31.48 14.28 31.29 14.81L31.29 14.81L31.29 14.81Q31.10 15.33 30.60 15.67L30.60 15.67L30.60 15.67Q30.11 16.01 29.26 16.17L29.26 16.17L29.26 16.17Q28.42 16.34 27.10 16.34L27.10 16.34L27.10 16.34Q26.12 16.34 25.38 16.26L25.38 16.26L25.38 16.26Q24.64 16.17 24.11 15.99L24.11 15.99L24.11 15.99Q23.57 15.80 23.22 15.49L23.22 15.49L23.22 15.49Q22.87 15.18 22.66 14.73L22.66 14.73L22.66 14.73Q22.45 14.28 22.37 13.67L22.37 13.67L22.37 13.67Q22.29 13.06 22.29 12.26ZM33.24 8.31L34.55 8.31L34.55 12.69L34.55 12.69Q34.55 13.42 34.66 13.92L34.66 13.92L34.66 13.92Q34.77 14.42 35.10 14.73L35.10 14.73L35.10 14.73Q35.42 15.04 36.03 15.18L36.03 15.18L36.03 15.18Q36.63 15.31 37.61 15.31L37.61 15.31L37.61 15.31Q38.68 15.31 39.36 15.16L39.36 15.16L39.36 15.16Q40.04 15.00 40.43 14.71L40.43 14.71L40.43 14.71Q40.82 14.42 40.96 14.02L40.96 14.02L40.96 14.02Q41.11 13.62 41.11 13.13L41.11 13.13L41.11 8.31L42.42 8.31L42.42 16.19L41.11 16.19L41.11 14.88L41.11 14.88Q41.02 15.09 40.79 15.34L40.79 15.34L40.79 15.34Q40.56 15.60 40.11 15.82L40.11 15.82L40.11 15.82Q39.66 16.04 38.95 16.19L38.95 16.19L38.95 16.19Q38.23 16.34 37.17 16.34L37.17 16.34L37.17 16.34Q36.29 16.34 35.66 16.23L35.66 16.23L35.66 16.23Q35.03 16.13 34.59 15.92L34.59 15.92L34.59 15.92Q34.15 15.71 33.88 15.40L33.88 15.40L33.88 15.40Q33.61 15.09 33.47 14.69L33.47 14.69L33.47 14.69Q33.33 14.28 33.28 13.78L33.28 13.78L33.28 13.78Q33.23 13.28 33.23 12.69L33.23 12.69L33.24 8.31ZM44.61 16.19L44.61 5.69L45.92 5.69L45.92 16.19L44.61 16.19ZM52.71 16.34L52.71 16.34L52.71 16.34Q51.39 16.34 50.48 16.16L50.48 16.16L50.48 16.16Q49.56 15.98 48.99 15.53L48.99 15.53L48.99 15.53Q48.41 15.09 48.15 14.34L48.15 14.34L48.15 14.34Q47.89 13.60 47.89 12.47L47.89 12.47L47.89 12.47Q47.89 11.18 48.15 10.33L48.15 10.33L48.15 10.33Q48.41 9.49 48.99 8.99L48.99 8.99L48.99 8.99Q49.56 8.49 50.48 8.29L50.48 8.29L50.48 8.29Q51.39 8.09 52.71 8.09L52.71 8.09L52.71 8.09Q53.64 8.09 54.33 8.23L54.33 8.23L54.33 8.23Q55.02 8.37 55.50 8.63L55.50 8.63L55.50 8.63Q55.99 8.89 56.30 9.26L56.30 9.26L56.30 9.26Q56.60 9.63 56.78 10.03L56.78 10.03L56.78 10.03Q56.95 10.44 57.02 10.99L57.02 10.99L57.02 10.99Q57.08 11.53 57.08 12.14L57.08 12.14L56.97 12.58L49.21 12.58L49.21 12.58Q49.21 13.48 49.38 14.06L49.38 14.06L49.38 14.06Q49.56 14.64 49.97 14.90L49.97 14.90L49.97 14.90Q50.38 15.17 51.05 15.24L51.05 15.24L51.05 15.24Q51.72 15.31 52.71 15.31L52.71 15.31L52.71 15.31Q53.61 15.31 54.20 15.26L54.20 15.26L54.20 15.26Q54.79 15.21 55.14 15.07L55.14 15.07L55.14 15.07Q55.49 14.92 55.63 14.67L55.63 14.67L55.63 14.67Q55.77 14.41 55.77 14L55.77 14L57.08 14L57.08 14Q57.08 14.64 56.86 15.08L56.86 15.08L56.86 15.08Q56.64 15.53 56.12 15.81L56.12 15.81L56.12 15.81Q55.61 16.08 54.77 16.21L54.77 16.21L54.77 16.21Q53.94 16.34 52.71 16.34ZM52.71 9.19L52.71 9.19L52.71 9.19Q52.05 9.19 51.53 9.21L51.53 9.21L51.53 9.21Q51.02 9.24 50.63 9.33L50.63 9.33L50.63 9.33Q50.24 9.43 49.97 9.60L49.97 9.60L49.97 9.60Q49.70 9.78 49.53 10.01L49.53 10.01L49.53 10.01Q49.36 10.25 49.28 10.67L49.28 10.67L49.28 10.67Q49.21 11.10 49.21 11.70L49.21 11.70L55.77 11.70L55.77 11.70Q55.77 10.90 55.60 10.45L55.60 10.45L55.60 10.45Q55.43 9.99 55.06 9.70L55.06 9.70L55.06 9.70Q54.69 9.41 54.11 9.30L54.11 9.30L54.11 9.30Q53.53 9.19 52.71 9.19ZM63.42 12.60L63.42 12.60L63.42 12.60Q64.19 12.60 64.73 12.62L64.73 12.62L64.73 12.62Q65.27 12.65 65.64 12.70L65.64 12.70L65.64 12.70Q66.00 12.76 66.21 12.85L66.21 12.85L66.21 12.85Q66.42 12.94 66.53 13.11L66.53 13.11L66.53 13.11Q66.64 13.29 66.67 13.46L66.67 13.46L66.67 13.46Q66.71 13.64 66.71 13.86L66.71 13.86L66.71 13.86Q66.71 14.11 66.67 14.31L66.67 14.31L66.67 14.31Q66.64 14.51 66.53 14.68L66.53 14.68L66.53 14.68Q66.41 14.84 66.19 14.96L66.19 14.96L66.19 14.96Q65.96 15.07 65.57 15.16L65.57 15.16L65.57 15.16Q65.18 15.24 64.60 15.27L64.60 15.27L64.60 15.27Q64.03 15.31 63.21 15.31L63.21 15.31L63.21 15.31Q62.30 15.31 61.71 15.26L61.71 15.26L61.71 15.26Q61.12 15.21 60.77 15.07L60.77 15.07L60.77 15.07Q60.42 14.92 60.28 14.67L60.28 14.67L60.28 14.67Q60.14 14.41 60.14 14L60.14 14L58.83 14L58.83 14Q58.83 14.62 59.05 15.05L59.05 15.05L59.05 15.05Q59.27 15.48 59.79 15.75L59.79 15.75L59.79 15.75Q60.30 16.02 61.14 16.15L61.14 16.15L61.14 16.15Q61.97 16.27 63.21 16.27L63.21 16.27L63.21 16.27Q64.19 16.27 64.93 16.21L64.93 16.21L64.93 16.21Q65.67 16.15 66.21 16.03L66.21 16.03L66.21 16.03Q66.74 15.91 67.09 15.72L67.09 15.72L67.09 15.72Q67.44 15.52 67.65 15.25L67.65 15.25L67.65 15.25Q67.85 14.98 67.94 14.63L67.94 14.63L67.94 14.63Q68.02 14.28 68.02 13.84L68.02 13.84L68.02 13.84Q68.02 13.39 67.94 13.05L67.94 13.05L67.94 13.05Q67.85 12.71 67.65 12.47L67.65 12.47L67.65 12.47Q67.45 12.22 67.12 12.00L67.12 12.00L67.12 12.00Q66.78 11.79 66.27 11.69L66.27 11.69L66.27 11.69Q65.75 11.59 65.05 11.55L65.05 11.55L65.05 11.55Q64.35 11.50 63.42 11.50L63.42 11.50L63.42 11.50Q62.66 11.50 62.12 11.50L62.12 11.50L62.12 11.50Q61.58 11.50 61.21 11.46L61.21 11.46L61.21 11.46Q60.85 11.42 60.63 11.35L60.63 11.35L60.63 11.35Q60.42 11.27 60.31 11.13L60.31 11.13L60.31 11.13Q60.20 10.99 60.17 10.76L60.17 10.76L60.17 10.76Q60.14 10.54 60.14 10.31L60.14 10.31L60.14 10.31Q60.14 9.91 60.32 9.69L60.32 9.69L60.32 9.69Q60.50 9.46 60.91 9.35L60.91 9.35L60.91 9.35Q61.32 9.24 61.99 9.21L61.99 9.21L61.99 9.21Q62.66 9.19 63.64 9.19L63.64 9.19L63.64 9.19Q64.54 9.19 65.14 9.24L65.14 9.24L65.14 9.24Q65.73 9.29 66.08 9.42L66.08 9.42L66.08 9.42Q66.42 9.56 66.56 9.79L66.56 9.79L66.56 9.79Q66.71 10.02 66.71 10.39L66.71 10.39L68.02 10.39L68.02 10.39Q68.02 9.80 67.82 9.37L67.82 9.37L67.82 9.37Q67.62 8.93 67.13 8.65L67.13 8.65L67.13 8.65Q66.63 8.37 65.79 8.23L65.79 8.23L65.79 8.23Q64.94 8.09 63.64 8.09L63.64 8.09L63.64 8.09Q62.33 8.09 61.41 8.21L61.41 8.21L61.41 8.21Q60.50 8.33 59.92 8.59L59.92 8.59L59.92 8.59Q59.35 8.85 59.09 9.27L59.09 9.27L59.09 9.27Q58.83 9.69 58.83 10.31L58.83 10.31L58.83 10.31Q58.83 10.76 58.91 11.15L58.91 11.15L58.91 11.15Q58.99 11.53 59.19 11.80L59.19 11.80L59.19 11.80Q59.39 12.06 59.73 12.22L59.73 12.22L59.73 12.22Q60.07 12.37 60.58 12.46L60.58 12.46L60.58 12.46Q61.09 12.54 61.79 12.57L61.79 12.57L61.79 12.57Q62.49 12.60 63.42 12.60ZM74.36 12.60L74.36 12.60L74.36 12.60Q75.13 12.60 75.67 12.62L75.67 12.62L75.67 12.62Q76.21 12.65 76.57 12.70L76.57 12.70L76.57 12.70Q76.94 12.76 77.15 12.85L77.15 12.85L77.15 12.85Q77.36 12.94 77.47 13.11L77.47 13.11L77.47 13.11Q77.58 13.29 77.61 13.46L77.61 13.46L77.61 13.46Q77.64 13.64 77.64 13.86L77.64 13.86L77.64 13.86Q77.64 14.11 77.61 14.31L77.61 14.31L77.61 14.31Q77.58 14.51 77.46 14.68L77.46 14.68L77.46 14.68Q77.35 14.84 77.12 14.96L77.12 14.96L77.12 14.96Q76.90 15.07 76.51 15.16L76.51 15.16L76.51 15.16Q76.12 15.24 75.54 15.27L75.54 15.27L75.54 15.27Q74.96 15.31 74.14 15.31L74.14 15.31L74.14 15.31Q73.24 15.31 72.65 15.26L72.65 15.26L72.65 15.26Q72.06 15.21 71.71 15.07L71.71 15.07L71.71 15.07Q71.36 14.92 71.22 14.67L71.22 14.67L71.22 14.67Q71.08 14.41 71.08 14L71.08 14L69.77 14L69.77 14Q69.77 14.62 69.99 15.05L69.99 15.05L69.99 15.05Q70.21 15.48 70.72 15.75L70.72 15.75L70.72 15.75Q71.24 16.02 72.07 16.15L72.07 16.15L72.07 16.15Q72.91 16.27 74.14 16.27L74.14 16.27L74.14 16.27Q75.13 16.27 75.87 16.21L75.87 16.21L75.87 16.21Q76.61 16.15 77.14 16.03L77.14 16.03L77.14 16.03Q77.68 15.91 78.03 15.72L78.03 15.72L78.03 15.72Q78.38 15.52 78.59 15.25L78.59 15.25L78.59 15.25Q78.79 14.98 78.87 14.63L78.87 14.63L78.87 14.63Q78.96 14.28 78.96 13.84L78.96 13.84L78.96 13.84Q78.96 13.39 78.87 13.05L78.87 13.05L78.87 13.05Q78.79 12.71 78.59 12.47L78.59 12.47L78.59 12.47Q78.39 12.22 78.05 12.00L78.05 12.00L78.05 12.00Q77.72 11.79 77.21 11.69L77.21 11.69L77.21 11.69Q76.69 11.59 75.99 11.55L75.99 11.55L75.99 11.55Q75.29 11.50 74.36 11.50L74.36 11.50L74.36 11.50Q73.60 11.50 73.06 11.50L73.06 11.50L73.06 11.50Q72.52 11.50 72.15 11.46L72.15 11.46L72.15 11.46Q71.78 11.42 71.57 11.35L71.57 11.35L71.57 11.35Q71.36 11.27 71.25 11.13L71.25 11.13L71.25 11.13Q71.14 10.99 71.11 10.76L71.11 10.76L71.11 10.76Q71.08 10.54 71.08 10.31L71.08 10.31L71.08 10.31Q71.08 9.91 71.26 9.69L71.26 9.69L71.26 9.69Q71.44 9.46 71.85 9.35L71.85 9.35L71.85 9.35Q72.26 9.24 72.93 9.21L72.93 9.21L72.93 9.21Q73.60 9.19 74.58 9.19L74.58 9.19L74.58 9.19Q75.48 9.19 76.07 9.24L76.07 9.24L76.07 9.24Q76.67 9.29 77.01 9.42L77.01 9.42L77.01 9.42Q77.36 9.56 77.50 9.79L77.50 9.79L77.50 9.79Q77.64 10.02 77.64 10.39L77.64 10.39L78.96 10.39L78.96 10.39Q78.96 9.80 78.76 9.37L78.76 9.37L78.76 9.37Q78.56 8.93 78.06 8.65L78.06 8.65L78.06 8.65Q77.57 8.37 76.72 8.23L76.72 8.23L76.72 8.23Q75.88 8.09 74.58 8.09L74.58 8.09L74.58 8.09Q73.27 8.09 72.35 8.21L72.35 8.21L72.35 8.21Q71.44 8.33 70.86 8.59L70.86 8.59L70.86 8.59Q70.29 8.85 70.03 9.27L70.03 9.27L70.03 9.27Q69.77 9.69 69.77 10.31L69.77 10.31L69.77 10.31Q69.77 10.76 69.85 11.15L69.85 11.15L69.85 11.15Q69.93 11.53 70.13 11.80L70.13 11.80L70.13 11.80Q70.33 12.06 70.67 12.22L70.67 12.22L70.67 12.22Q71.00 12.37 71.51 12.46L71.51 12.46L71.51 12.46Q72.02 12.54 72.73 12.57L72.73 12.57L72.73 12.57Q73.43 12.60 74.36 12.60Z"></path></g><!----><!----></svg>